<mxfile host="app.diagrams.net" modified="2023-08-28T13:57:39.851Z" agent="Mozilla/5.0 (Windows NT 10.0; Win64; x64) AppleWebKit/537.36 (KHTML, like Gecko) Chrome/116.0.0.0 Safari/537.36" etag="fjWJh6B61gULkcgEJNM-" version="21.6.9" type="device">
  <diagram id="C5RBs43oDa-KdzZeNtuy" name="Page-1">
    <mxGraphModel dx="874" dy="478" grid="1" gridSize="10" guides="1" tooltips="1" connect="1" arrows="1" fold="1" page="1" pageScale="1" pageWidth="827" pageHeight="1169" math="0" shadow="0">
      <root>
        <mxCell id="WIyWlLk6GJQsqaUBKTNV-0" />
        <mxCell id="WIyWlLk6GJQsqaUBKTNV-1" parent="WIyWlLk6GJQsqaUBKTNV-0" />
        <mxCell id="1zANiJbBdwUyzswozX2--6" style="edgeStyle=orthogonalEdgeStyle;rounded=0;orthogonalLoop=1;jettySize=auto;html=1;" edge="1" parent="WIyWlLk6GJQsqaUBKTNV-1" source="1zANiJbBdwUyzswozX2--0">
          <mxGeometry relative="1" as="geometry">
            <mxPoint x="369" y="120" as="targetPoint" />
          </mxGeometry>
        </mxCell>
        <mxCell id="1zANiJbBdwUyzswozX2--0" value="" style="ellipse;whiteSpace=wrap;html=1;aspect=fixed;fillColor=#000000;" vertex="1" parent="WIyWlLk6GJQsqaUBKTNV-1">
          <mxGeometry x="334" y="30" width="70" height="70" as="geometry" />
        </mxCell>
        <mxCell id="1zANiJbBdwUyzswozX2--1" value="" style="ellipse;whiteSpace=wrap;html=1;aspect=fixed;fillColor=#000000;" vertex="1" parent="WIyWlLk6GJQsqaUBKTNV-1">
          <mxGeometry x="334" y="450" width="70" height="70" as="geometry" />
        </mxCell>
        <mxCell id="1zANiJbBdwUyzswozX2--8" style="edgeStyle=orthogonalEdgeStyle;rounded=0;orthogonalLoop=1;jettySize=auto;html=1;entryX=0.5;entryY=0;entryDx=0;entryDy=0;" edge="1" parent="WIyWlLk6GJQsqaUBKTNV-1" source="1zANiJbBdwUyzswozX2--2" target="1zANiJbBdwUyzswozX2--3">
          <mxGeometry relative="1" as="geometry" />
        </mxCell>
        <mxCell id="1zANiJbBdwUyzswozX2--2" value="&quot;Ingrese lados del triangulo&quot;" style="shape=document;whiteSpace=wrap;html=1;boundedLbl=1;" vertex="1" parent="WIyWlLk6GJQsqaUBKTNV-1">
          <mxGeometry x="303.5" y="130" width="131" height="60" as="geometry" />
        </mxCell>
        <mxCell id="1zANiJbBdwUyzswozX2--9" style="edgeStyle=orthogonalEdgeStyle;rounded=0;orthogonalLoop=1;jettySize=auto;html=1;entryX=0.5;entryY=0;entryDx=0;entryDy=0;" edge="1" parent="WIyWlLk6GJQsqaUBKTNV-1" source="1zANiJbBdwUyzswozX2--3" target="1zANiJbBdwUyzswozX2--4">
          <mxGeometry relative="1" as="geometry" />
        </mxCell>
        <mxCell id="1zANiJbBdwUyzswozX2--3" value="lado1,lado2,lado3" style="shape=parallelogram;perimeter=parallelogramPerimeter;whiteSpace=wrap;html=1;fixedSize=1;" vertex="1" parent="WIyWlLk6GJQsqaUBKTNV-1">
          <mxGeometry x="303.5" y="210" width="131" height="50" as="geometry" />
        </mxCell>
        <mxCell id="1zANiJbBdwUyzswozX2--10" style="edgeStyle=orthogonalEdgeStyle;rounded=0;orthogonalLoop=1;jettySize=auto;html=1;entryX=0.5;entryY=0;entryDx=0;entryDy=0;" edge="1" parent="WIyWlLk6GJQsqaUBKTNV-1" source="1zANiJbBdwUyzswozX2--4" target="1zANiJbBdwUyzswozX2--5">
          <mxGeometry relative="1" as="geometry" />
        </mxCell>
        <mxCell id="1zANiJbBdwUyzswozX2--4" value="perimetro&amp;lt;-lado1+lado2+lado3" style="rounded=0;whiteSpace=wrap;html=1;" vertex="1" parent="WIyWlLk6GJQsqaUBKTNV-1">
          <mxGeometry x="309" y="290" width="120" height="60" as="geometry" />
        </mxCell>
        <mxCell id="1zANiJbBdwUyzswozX2--11" style="edgeStyle=orthogonalEdgeStyle;rounded=0;orthogonalLoop=1;jettySize=auto;html=1;entryX=0.5;entryY=0;entryDx=0;entryDy=0;" edge="1" parent="WIyWlLk6GJQsqaUBKTNV-1" source="1zANiJbBdwUyzswozX2--5" target="1zANiJbBdwUyzswozX2--1">
          <mxGeometry relative="1" as="geometry" />
        </mxCell>
        <mxCell id="1zANiJbBdwUyzswozX2--5" value="&quot;El perimetro del triangulo es:&quot;, perimetro" style="shape=document;whiteSpace=wrap;html=1;boundedLbl=1;" vertex="1" parent="WIyWlLk6GJQsqaUBKTNV-1">
          <mxGeometry x="303.5" y="370" width="131" height="60" as="geometry" />
        </mxCell>
      </root>
    </mxGraphModel>
  </diagram>
</mxfile>
